HIERARCHY
    ROOT Hips
    {
        OFFSET -42.200000 91.615000 -40.070000
        CHANNELS 6 Xposition Yposition Zposition Zrotation Yrotation Xrotation 
        JOINT Thigh_L
        {
            OFFSET 0.103500 1.857800 10.548500
            CHANNELS 3 Zrotation Yrotation Xrotation
            JOINT Shin_L
            {
                OFFSET 43.500000 0.000000 0.000000
                CHANNELS 3 Zrotation Yrotation Xrotation
                JOINT Foot_L
                {
                    OFFSET 42.372000 0.000000 0.000000
                    CHANNELS 3 Zrotation Yrotation Xrotation
                    JOINT Toe_L
                    {
                        OFFSET 17.300000 0.000000 0.000000
                        CHANNELS 3 Zrotation Yrotation Xrotation
                        End Site
                        {
                            OFFSET 10.000000 0.000000 0.000000
                        }
                    }
                }
            }
        }
        JOINT Thigh_R
        {
            OFFSET 0.103500 1.857800 -10.548500
            CHANNELS 3 Zrotation Yrotation Xrotation
            JOINT Shin_R
            {
                OFFSET 43.500000 0.000000 0.000000
                CHANNELS 3 Zrotation Yrotation Xrotation
                JOINT Foot_R
                {
                    OFFSET 42.372000 0.000000 0.000000
                    CHANNELS 3 Zrotation Yrotation Xrotation
                    JOINT Toe_R
                    {
                        OFFSET 17.300000 0.000000 0.000000
                        CHANNELS 3 Zrotation Yrotation Xrotation
                        End Site 
                        {
                            OFFSET 10.000000 0.000000 0.000000
                        }
                    }
                }
            }
        }
        JOINT Spine
        {
            OFFSET 6.900000 -2.600000 0.000000
            CHANNELS 3 Zrotation Yrotation Xrotation
            JOINT Spine1
            {
                OFFSET 12.588000 0.000000 0.000000
                CHANNELS 3 Zrotation Yrotation Xrotation
                JOINT Spine2
                {
                    OFFSET 12.343000 0.000000 0.000000
                    CHANNELS 3 Zrotation Yrotation Xrotation
                    JOINT Neck
                    {
                        OFFSET 25.833000 0.000000 0.000000
                        CHANNELS 3 Zrotation Yrotation Xrotation
                        JOINT Head
                        {
                            OFFSET 11.766600 0.000000 0.000000
                            CHANNELS 3 Zrotation Yrotation Xrotation
                            End Site
                            {
                                OFFSET 10.000000 0.000000 0.000000
                            }
                        }
                    }
                    JOINT Shoulder_L
                    {
                        OFFSET 19.746000 -1.480000 6.000000
                        CHANNELS 3 Zrotation Yrotation Xrotation
                        JOINT UpperArm_L
                        {
                            OFFSET 11.284000 0.000000 0.000000
                            CHANNELS 3 Zrotation Yrotation Xrotation
                            JOINT Forearm_L
                            {
                                OFFSET 33.000000 0.000000 0.000000
                                CHANNELS 3 Zrotation Yrotation Xrotation
                                JOINT Hand_L
                                {
                                    OFFSET 25.200000 0.000000 0.000000
                                    CHANNELS 3 Zrotation Yrotation Xrotation
                                    End Site
                                    {
                                        OFFSET 10.000000 0.000000 0.000000
                                    }
                                }
                            }
                        }
                    }
                    JOINT Shoulder_R
                    {
                        OFFSET 19.745000 -1.480000 -6.000000
                        CHANNELS 3 Zrotation Yrotation Xrotation
                        JOINT UpperArm_R
                        {
                            OFFSET 11.284000 0.000000 0.000000
                            CHANNELS 3 Zrotation Yrotation Xrotation
                            JOINT Forearm_R
                            {
                                OFFSET 33.000000 0.000000 0.000000
                                CHANNELS 3 Zrotation Yrotation Xrotation
                                JOINT Hand_R
                                {
                                    OFFSET 25.200000 0.000000 0.000000
                                    CHANNELS 3 Zrotation Yrotation Xrotation
                                    End Site
                                    {
                                        OFFSET 10.000000 0.000000 0.000000
                                    }
                                }
                            }
                        }
                    }
                }
            }
        }
    }
    MOTION 
Frames: 8 
Frame Time: 0.033333 
0.0 92.71921358100785 0.0 -85.8184582417588 -178.9734822182168 -3.013079394156374e-07 4.701573094896148 -179.12585007822142 0.9069594755448369 -8.259830579340106 -2.504903362767065 -1.8540386285006825 81.77183070571472 -0.8667928405832844 -0.0927388811476183 21.45455308873717 0.003096450877291908 1.318905087311305e-06 2.313776100213302 177.9441863706742 -1.6865908847474134 -14.86045453002779 1.7896468066569757 0.7221679604982014 84.38799123331553 -0.6142709285709811 -0.28693859490976287 21.45455821137905 -0.0031041408848922892 -1.5679393230485544e-05 6.194051390813974 -0.36198847338602497 -0.018731070092192638 2.3547030206068413 -0.6974918210482677 -0.06273796890942487 2.036595070863137 -0.6975828013024463 -0.05841902818783557 2.6486709473896055 0.9217305066769299 -2.2090106032988266 -6.752970893237995 0.45090950557123094 1.1174293002195468 -75.60701124388792 -82.25241647609515 -106.86806307498426 -8.277992052343171 0.812615406560773 -4.792557617943064 0.8318597847124013 -1.7479614151004474 -1.3065809305558833 0.16071664568707433 1.3481070933273858 2.9996671117605676 -100.44143563208172 87.97593058545824 81.39910045251796 -1.5519106533721634 0.08567826647461019 4.283073317184304 -0.7595391804593675 0.9043491693431285 1.7946390346100203 0.3148923447072301 -2.960242832984431 -1.6535051282427544 
-139.8 92.0 -20.1 89.73226165771484 0.32784774899482727 179.81285095214844 169.84066772460938 -0.5665566921234131 162.74972534179688 -24.649953842163086 2.907104969024658 -6.405280590057373 83.79798126220703 3.7378158569335938 -3.849125862121582 21.446033477783203 0.0038486081175506115 0.003988658543676138 170.82965087890625 4.5407395362854 -170.3596954345703 -22.528884887695312 -2.7415332794189453 4.837615966796875 86.48115539550781 -2.1931073665618896 6.546712875366211 21.448040008544922 -0.0031085151713341475 0.008297177031636238 6.40571403503418 -0.09943053871393204 -0.34449779987335205 1.8253183364868164 -0.32512396574020386 -0.6672044396400452 1.5340137481689453 -0.38158369064331055 -0.6796383857727051 1.7251309156417847 5.698670864105225 -3.314148187637329 -16.197799682617188 -4.769868850708008 -0.5597440004348755 -156.55587768554688 -82.33077239990234 -25.412572860717773 -13.207151412963867 61.06382369995117 43.3751220703125 -30.42679214477539 -15.631319999694824 1.2036888599395752 12.458768844604492 -4.258956432342529 -6.435695648193359 -178.08570861816406 77.12157440185547 3.5984292030334473 -0.964605987071991 -60.68705749511719 -22.87012481689453 -36.8897590637207 12.62040901184082 -1.290328860282898 6.258909225463867 3.1870856285095215 -6.238799095153809
-139.8 92.1 -19.9 89.57807922363281 0.2517021596431732 179.5403289794922 168.47024536132812 -0.9591020941734314 163.12074279785156 -27.051109313964844 2.931852340698242 -6.0461745262146 82.5615234375 3.7314531803131104 -4.032183647155762 21.44165802001953 0.0066122268326580524 0.00623047910630703 171.2168731689453 4.500249862670898 -170.59927368164062 -21.506834030151367 -2.5210084915161133 4.719776153564453 86.93302154541016 -2.0137219429016113 6.543759822845459 21.442333221435547 -0.004227290861308575 0.012935640290379524 7.004040241241455 -0.22849787771701813 -0.3104691505432129 1.992635726928711 -0.4405812919139862 -0.604759931564331 1.7230005264282227 -0.43892523646354675 -0.6419779062271118 1.2851699590682983 5.799601078033447 -3.3479089736938477 -16.391521453857422 -4.812155723571777 -0.5361162424087524 -156.7848358154297 -82.2817153930664 -25.153779983520508 -12.338857650756836 61.29235076904297 43.79673767089844 -28.564176559448242 -15.441630363464355 0.9725393056869507 12.626354217529297 -4.172741889953613 -6.753113746643066 -179.15306091308594 76.90042114257812 2.706662654876709 -2.668125629425049 -60.83833312988281 -20.91486358642578 -37.25629806518555 12.606425285339355 -1.311618685722351 6.18292236328125 3.3990607261657715 -6.274471282958984
-140.0 91.8 -19.8 89.40576171875 0.3185524642467499 179.32545471191406 166.9344024658203 -1.4914246797561646 163.64540100097656 -29.725830078125 3.0305635929107666 -5.5452046394348145 82.36300659179688 3.690364122390747 -4.1543145179748535 21.441877365112305 0.013081277720630169 0.006250930950045586 171.1348114013672 4.5099334716796875 -170.86976623535156 -21.17517852783203 -2.2338995933532715 4.509676456451416 87.90132141113281 -1.534072995185852 6.673219680786133 21.44264793395996 -0.0073706661351025105 0.012675232253968716 7.845613956451416 -0.3752523362636566 -0.2944560945034027 2.3872439861297607 -0.4872223138809204 -0.6166414618492126 2.039031982421875 -0.4211513102054596 -0.7032938599586487 0.714134156703949 6.029646873474121 -3.3445279598236084 -16.763704299926758 -4.90299129486084 -0.4392036497592926 -157.4375 -82.2625961303711 -24.435264587402344 -11.44936752319336 61.598751068115234 44.101810455322266 -26.505470275878906 -15.233100891113281 0.7070758938789368 12.785962104797363 -4.131246566772461 -7.070698261260986 179.79940795898438 76.58245849609375 1.8350048065185547 -5.015531539916992 -60.987369537353516 -18.126983642578125 -37.54373550415039 12.594673156738281 -1.3315171003341675 6.089471340179443 3.669677972793579 -6.321590900421143
-140.1 91.3 -19.7 89.06285858154297 0.49946266412734985 179.09075927734375 165.1804656982422 -2.102764844894409 164.06275939941406 -32.66104507446289 3.1829025745391846 -4.986830234527588 82.89286804199219 3.646528720855713 -4.222217559814453 21.442968368530273 0.018417304381728172 0.004208795260637999 170.35760498046875 4.594143390655518 -171.24034118652344 -22.187665939331055 -1.9274736642837524 4.269042015075684 89.56227111816406 -0.9263572096824646 6.860865116119385 21.447389602661133 -0.010837920941412449 0.012633942067623138 8.955730438232422 -0.5223068594932556 -0.2906528413295746 3.0888102054595947 -0.5435662865638733 -0.6779960989952087 2.6032328605651855 -0.41529253125190735 -0.8510066866874695 0.03558550029993057 6.261996269226074 -3.315342903137207 -17.334802627563477 -4.978442192077637 -0.3178105056285858 -158.5409698486328 -82.19110870361328 -23.236637115478516 -10.135979652404785 61.7789306640625 44.67030715942383 -24.79905891418457 -15.019782066345215 0.5034708380699158 12.920080184936523 -4.142303466796875 -7.3369269371032715 178.73007202148438 76.23827362060547 0.9223167300224304 -7.337165355682373 -61.17932891845703 -15.064236640930176 -38.28456497192383 12.613767623901367 -1.4024797677993774 5.936123847961426 4.019732475280762 -6.430887222290039
-139.7 90.6 -19.7 88.43395233154297 0.6953099370002747 178.80368041992188 163.31361389160156 -2.702349901199341 164.4935302734375 -35.871849060058594 3.40187406539917 -4.410562992095947 84.6446533203125 3.553647041320801 -4.194900989532471 21.444093704223633 0.021865330636501312 -0.000523851893376559 168.83758544921875 4.8075056076049805 -171.62478637695312 -24.749588012695312 -1.6379565000534058 3.9734578132629395 92.15129089355469 -0.19532307982444763 7.173856258392334 21.456077575683594 -0.014243501238524914 0.013601426035165787 10.052772521972656 -0.7424513697624207 -0.329343318939209 4.014029502868652 -0.685204267501831 -0.8698067665100098 3.399230480194092 -0.4368225634098053 -1.1973497867584229 -0.7492313385009766 6.4417243003845215 -3.25848650932312 -18.067989349365234 -5.006409645080566 -0.1884537637233734 -158.9444122314453 -81.95999908447266 -22.650148391723633 -7.673656940460205 61.61561584472656 46.318145751953125 -23.368871688842773 -14.768954277038574 0.3649323284626007 13.030183792114258 -4.150030136108398 -7.533438205718994 178.13319396972656 75.84781646728516 0.3852559030056 -8.109343528747559 -61.7935676574707 -13.31000804901123 -39.485660552978516 12.607244491577148 -1.5141104459762573 5.713772773742676 4.406429290771484 -6.617560386657715
-138.6 89.7 -19.6 87.56846618652344 0.8142985701560974 178.4900665283203 161.76394653320312 -3.173837661743164 164.8415069580078 -39.0236930847168 3.673412322998047 -3.9173424243927 87.20724487304688 3.5051283836364746 -4.0841169357299805 21.443382263183594 0.021768955513834953 -0.00772534916177392 166.95895385742188 5.1645426750183105 -171.9781494140625 -28.45973777770996 -1.4090760946273804 3.6174893379211426 95.02963256835938 0.5609269738197327 7.619063377380371 21.465866088867188 -0.016781514510512352 0.017316503450274467 10.929698944091797 -1.0564093589782715 -0.4114753007888794 4.9357709884643555 -0.9047405123710632 -1.1878302097320557 4.328466415405273 -0.4523126482963562 -1.7531325817108154 -1.5693252086639404 6.447882652282715 -3.1891942024230957 -18.838455200195312 -4.972001075744629 -0.08633774518966675 -157.1156768798828 -81.49559020996094 -24.080814361572266 -2.610137701034546 60.846336364746094 50.68100357055664 -22.37968635559082 -14.43050765991211 0.33444368839263916 13.126179695129395 -4.036875247955322 -7.633813858032227 178.39849853515625 75.56546783447266 0.5489817261695862 -5.162422180175781 -63.051029205322266 -15.20406436920166 -41.65930938720703 12.529881477355957 -1.7195879220962524 5.411513328552246 4.735611438751221 -6.9047393798828125
-137.1 88.7 -19.5 86.72101593017578 0.8510997891426086 178.2511444091797 161.0186309814453 -3.4746899604797363 165.0797119140625 -41.44818115234375 3.966179370880127 -3.5496597290039062 90.38876342773438 3.5412890911102295 -3.889963150024414 21.441537857055664 0.018962394446134567 -0.016228267922997475 165.20179748535156 5.586195468902588 -172.23048400878906 -32.538909912109375 -1.304509162902832 3.2992794513702393 97.53641510009766 1.1414663791656494 8.078387260437012 21.4754581451416 -0.01844332367181778 0.02187569998204708 11.47734546661377 -1.3417901992797852 -0.5255967974662781 5.625438213348389 -1.067854642868042 -1.5860536098480225 5.202353000640869 -0.36971110105514526 -2.436516761779785 -2.358452796936035 6.2413225173950195 -3.134874105453491 -19.508134841918945 -4.908783435821533 -0.031059375032782555 -153.3597869873047 -80.72907257080078 -27.216800689697266 4.778068542480469 59.560760498046875 57.52450942993164 -22.05442237854004 -14.033618927001953 0.4323424994945526 13.182517051696777 -3.774643898010254 -7.595175743103027 179.5866241455078 75.40939331054688 1.4818342924118042 2.5826942920684814 -64.60321044921875 -21.975658416748047 -44.559226989746094 12.352938652038574 -1.9998598098754883 5.082294940948486 4.926751613616943 -7.231232166290283
